<?xml version="1.0" encoding="UTF-8" standalone="no"?>
<svg width="34px" height="34px" viewBox="0 0 34 34" version="1.1" xmlns="http://www.w3.org/2000/svg" xmlns:xlink="http://www.w3.org/1999/xlink">
    <!-- Generator: Sketch 48.1 (47250) - http://www.bohemiancoding.com/sketch -->
    <title>ambassador</title>
    <desc>Created with Sketch.</desc>
    <defs></defs>
    <g id="Dashboard---Product-menu" stroke="none" stroke-width="1" fill="none" fill-rule="evenodd" transform="translate(-149.000000, -166.000000)">
        <g id="Products-drop-down" transform="translate(109.000000, 58.000000)" fill-rule="nonzero">
            <g id="ambassador" transform="translate(59.021376, 124.503769) rotate(20.000000) translate(-59.021376, -124.503769) translate(45.021376, 111.003769)">
                <path d="M6.48033794,21.7923814 C6.52155848,21.8278286 6.5795175,21.8702918 6.65423021,21.9167859 C6.98331374,22.1215766 7.51347884,22.3281273 8.19785806,22.5082561 C9.68842291,22.9005731 11.7410619,23.1290715 13.9401037,23.1290715 C16.1391455,23.1290715 18.1917845,22.9005731 19.6823494,22.5082561 C20.3667286,22.3281273 20.8968937,22.1215766 21.2259773,21.9167859 C21.3008838,21.8701711 21.3589497,21.8276083 21.4001901,21.7921056 C21.3295137,21.2028959 21.2734661,20.5968831 21.2313925,19.974507 L21.1436419,18.676451 L22.4205888,18.9255616 C26.424419,19.7066406 28.8653459,20.9531614 28.8653459,22.8483168 C28.8653459,25.7756155 22.2676085,27.50926 13.932673,27.50926 C5.59793296,27.50926 -1,25.7755907 -1,22.8483168 C-1,20.9508769 1.44667546,19.7036998 5.46039479,18.9226716 L6.73614148,18.6744245 L6.64915973,19.971186 C6.60736013,20.5943525 6.55130085,21.2016048 6.48033794,21.7923814 Z" id="Shape" stroke="#F9634E" stroke-width="2"></path>
                <path d="M22.8545375,6.39755357 C22.590436,7.70412248 19.2140849,8.74353056 13.9397941,8.74353056 C8.6664322,8.74353056 5.28915227,7.70474451 5.02505072,6.39848661 C5.02505072,6.39848661 6.0557589,14.4310397 5.69289018,22.2409068 C6.06690504,23.3474939 9.61540204,24.2155334 13.9397941,24.2155334 C18.2654246,24.2155334 21.8142313,23.3474939 22.1870077,22.2402848 C21.8250678,14.4441022 22.847726,6.42616684 22.8545375,6.39755357 Z" id="Shape" fill="#FFFFFF"></path>
                <path d="M5.58492074,5.53538872 C5.5013117,5.08657029 5.4166101,4.65680334 5.33186504,4.24808356 C5.26325848,3.91719867 5.19942661,3.62355684 5.14197378,3.37022678 C5.10709139,3.21641783 5.08180406,3.10910024 5.06771523,3.05134762 L3.11603859,3.48652073 C3.28783132,4.33621515 4.18204219,5.02288002 5.58492074,5.53538872 Z M22.2948067,5.5349237 C23.6976196,5.02224656 24.5917751,4.33539449 24.7635588,3.48554236 L22.8105673,3.05583231 C22.7963067,3.11454303 22.7710308,3.22201429 22.736029,3.37657935 C22.6784022,3.63105473 22.6145445,3.92519801 22.5459869,4.25622849 C22.4618526,4.662471 22.3777858,5.08934574 22.2948067,5.5349237 Z M24.7561974,3.51899911 C24.742774,3.57423758 24.7194719,3.67331667 24.6866395,3.81830166 C24.6316881,4.06096299 24.5704411,4.34308058 24.5044273,4.66182857 C24.3156312,5.57343081 24.1267386,6.59465511 23.9503492,7.70102732 C23.3673347,11.3578864 23.0568311,15.0436326 23.1621884,18.4674219 C23.1685581,18.674419 23.1764662,18.8798832 23.1859318,19.0837716 L23.1946381,19.271306 L23.1347348,19.4492288 C22.5522211,21.1793931 18.7104919,22.1053955 13.9397941,22.1053955 C9.17144355,22.1053955 5.32978753,21.1795647 4.74553851,19.4509639 L4.68522534,19.2725171 L4.69396783,19.0843562 C4.70344652,18.8803505 4.71136534,18.674767 4.71774354,18.4676488 C4.82317993,15.0438275 4.51260456,11.3580016 3.92943867,7.70129041 C3.75242781,6.59135308 3.56285724,5.56730442 3.37351773,4.65413258 C3.30746939,4.33558585 3.24626456,4.05402902 3.19150497,3.81257438 C3.15905991,3.6695125 3.1362562,3.57273521 3.12469648,3.52534989 L5.07637312,3.09017679 C5.192799,3.66602429 9.23791516,4.6333927 13.9397941,4.6333927 C18.6421608,4.6333927 22.6867033,3.66565346 22.8032059,3.08928907 L23.7833824,3.28741571 L24.7561974,3.51899911 Z M24.7960766,2.71048514 C24.7960766,2.81874244 24.7857648,2.92638831 24.7652379,3.02707792 C24.3619245,5.0796016 19.755191,6.18273372 13.9401037,6.18273372 C8.13288789,6.18273372 3.53003727,5.08198603 3.11717313,3.03989906 C3.09467344,2.93092827 3.08382126,2.8207049 3.08382126,2.71048514 C3.08382126,0.429798382 7.83430084,-0.76176344 13.9401037,-0.76176344 C20.0462978,-0.76176344 24.7960766,0.42957078 24.7960766,2.71048514 Z" id="Combined-Shape" stroke="#F9634E" stroke-width="2"></path>
            </g>
        </g>
    </g>
</svg>