<?xml version="1.0" encoding="UTF-8" standalone="no"?>
<svg width="83px" height="83px" viewBox="0 0 83 83" version="1.1" xmlns="http://www.w3.org/2000/svg" xmlns:xlink="http://www.w3.org/1999/xlink">
    <!-- Generator: Sketch 48.1 (47250) - http://www.bohemiancoding.com/sketch -->
    <title>Group 10</title>
    <desc>Created with Sketch.</desc>
    <defs></defs>
    <g id="Dashboard" stroke="none" stroke-width="1" fill="none" fill-rule="evenodd" transform="translate(-200.000000, -87.000000)">
        <g id="Group-10" transform="translate(200.000000, 87.000000)">
            <rect id="Rectangle-5" fill="#FFFFFF" x="0" y="0" width="83" height="83" rx="20"></rect>
            <g id="Group" transform="translate(7.000000, 12.000000)">
                <ellipse id="Oval-8" fill="#E4E4E4" cx="36" cy="56.5" rx="13" ry="1.5"></ellipse>
                <path d="M31.2983609,49.0209182 C30.6384769,49.0093654 30.0943472,49.5279599 30.0825833,50.2039277 L30.0209519,53.7453629 C30.0093805,54.4102738 30.5312563,54.9585915 31.1948256,54.9702088 L31.7016391,54.9790818 C32.3615231,54.9906346 32.9056528,54.4720401 32.9174167,53.7960723 L32.9790481,50.2546371 C32.9906195,49.5897262 32.4687437,49.0414085 31.8051744,49.0297912 L31.2983609,49.0209182 Z" id="Line-Copy-9" fill="#000000" fill-rule="nonzero"></path>
                <path d="M42.2762584,49.2031671 C41.623573,49.090961 41.0157556,49.5394172 40.9210454,50.188476 L40.1734215,55.3120208 C40.0776435,55.968398 40.5329196,56.5921134 41.1817915,56.7036639 L41.7237416,56.7968329 C42.376427,56.909039 42.9842444,56.4605828 43.0789546,55.811524 L43.8265785,50.6879792 C43.9223565,50.031602 43.4670804,49.4078866 42.8182085,49.2963361 L42.2762584,49.2031671 Z" id="Line-Copy-12" fill="#000000" fill-rule="nonzero" transform="translate(42.000000, 53.000000) rotate(-5.000000) translate(-42.000000, -53.000000) "></path>
                <path d="M33.5401215,47.6884615 C44.8779684,47.6884615 48.9032314,47.8566106 48.9032314,47.8566106 C52.2158642,47.9396876 55.0005639,45.3173128 54.9878518,42.0141402 C54.9878518,42.0141402 57.8222161,7.26863962 33.5401215,7.00703478 C22.2022747,7.00703478 13.0111338,16.1138824 13.0111338,27.3477482 C13.0111338,38.581614 22.2022747,47.6884615 33.5401215,47.6884615 Z" id="Oval-4-Copy-10" fill="#000000" transform="translate(34.050260, 27.432783) rotate(9.000000) translate(-34.050260, -27.432783) "></path>
                <path d="M46.7185428,51.2387417 L44.9466691,54.0089098 L38.9685117,53.0526419 L38.6152078,50.8399598 C37.8522825,50.7622684 37.0338603,50.6707656 36.1585397,50.5631624 L34.7760739,52.2992625 L28.858274,51.3478439 L28.4290846,50.1802064 C24.2105731,49.7011043 17.6694628,45.4774837 15.9913959,37.1795028 C15.9899331,36.7345201 20.5066801,33.9514215 30.9968396,33.9852222 C41.4869991,34.0190229 52.9918328,43.1726192 52.9918328,43.1726192 L52.616531,46.2576282 C52.2837051,48.993482 49.772963,51.2165562 47.0086409,51.2229269 C47.0086409,51.2229269 46.913388,51.2305609 46.7185428,51.2387417 Z" id="Combined-Shape" fill="#D0021B"></path>
                <path d="M63.2932271,39.4277971 L62.2216418,34.7409188 L61.4558587,34.9194405 L62.4003621,39.0504907 L61.5532653,38.6925251 L60.6497891,34.7409188 L59.884006,34.9194405 L60.6604004,38.3152187 L59.8133036,37.957253 L59.0779364,34.7409188 L58.3121533,34.9194405 L58.9204386,37.5799467 L55.3715096,36.0802423 C55.3715096,36.0802423 52.8356156,28.8919562 52.1101447,27.2625219 C50.888364,24.5183576 57.7451757,19.8397698 61.3436066,23.1532197 C64.9420376,26.4666695 67.0422338,41.0120502 67.0422338,41.0120502 L63.2932271,39.4277971 Z" id="Combined-Shape" fill="#000000"></path>
                <path d="M21.2113759,18 C21.2113759,18 10.6648732,19.12116 1,26.7801779 L24,28 L21.2113759,25.2961357" id="Path-2-Copy-4" fill="#F5A623" transform="translate(12.500000, 23.000000) rotate(9.000000) translate(-12.500000, -23.000000) "></path>
                <g id="Group-8" transform="translate(32.500000, 49.500000) rotate(-6.000000) translate(-32.500000, -49.500000) translate(32.000000, 46.000000)"></g>
                <path d="M37.4293121,7.28463514 C37.4014397,7.25971289 37.3474734,7.21045256 37.2711622,7.13917002 C37.1430198,7.01947176 36.999987,6.88234813 36.8458217,6.73013026 C36.4053101,6.29518309 35.9648503,5.82744181 35.5547176,5.34603014 C35.0830289,4.79236425 34.6828635,4.25673103 34.3773992,3.75551676 C33.4777231,2.27930325 33.5041309,1.40413683 34.6303162,1.00663121 C36.0425656,0.508154555 36.9541734,0.963302184 37.2117921,1.86086372 C37.3031772,2.17925556 37.2708702,2.4780603 37.1621854,2.61518804 C37.0710713,2.7301468 36.8975048,2.73864009 36.5863984,2.53644598 C36.4117966,2.42296894 36.1863694,2.48619917 36.0828925,2.67767467 C35.9794156,2.86915016 36.0370737,3.11636304 36.2116754,3.22984008 C36.8025861,3.61388438 37.3663165,3.58629885 37.7169175,3.14394513 C38.0114289,2.77235983 38.0750516,2.18391756 37.9128705,1.61886719 C37.5276078,0.276585594 36.1907416,-0.390885138 34.405129,0.239376213 C32.6813815,0.847801251 32.6360873,2.34886542 33.766327,4.20339392 C34.0964552,4.74507748 34.5208435,5.31313384 35.0176523,5.89628546 C35.4435377,6.39618755 35.8988116,6.87966062 36.3540336,7.32913228 C36.5133751,7.48646101 36.6614559,7.62842406 36.7945691,7.75276557 C36.8750113,7.82790688 36.9330116,7.88084947 36.9648548,7.90932219 C37.1221556,8.04997342 37.3536454,8.02415281 37.4819017,7.85165024 C37.6101581,7.67914768 37.5866129,7.42528637 37.4293121,7.28463514 Z" id="Path-6-Copy-4" fill="#000000" fill-rule="nonzero"></path>
                <path d="M42,40.6995995 L42,40.5367156 C42,40.3693806 42.0598813,40.242101 42.1796457,40.1548732 C42.29941,40.0676453 42.4570791,40.0186916 42.6526576,40.0080107 C42.7383605,40.0026702 42.8218647,40 42.9031726,40 C43.2042317,40 43.4613367,40.0320424 43.6744953,40.0961282 L43.6744953,40.4993324 C43.4745217,40.4815308 43.2108243,40.4726302 42.8833951,40.4726302 C42.7867046,40.4726302 42.721879,40.4788606 42.6889164,40.4913218 C42.6559537,40.5037829 42.6394726,40.5367154 42.6394726,40.5901202 L42.6394726,40.6194927 C42.6394726,40.6657768 42.6515587,40.6987093 42.6757314,40.7182911 C42.699904,40.7378728 42.7537422,40.7476636 42.8372476,40.7476636 L43.1470952,40.7476636 C43.408599,40.7476636 43.589891,40.8393404 43.6909765,41.0226969 C43.7393218,41.1117049 43.763494,41.2087222 43.763494,41.3137517 L43.763494,41.4018692 C43.763494,41.800625 43.54045,42 43.0943552,42 C42.7735185,42 42.5636593,41.9959947 42.4647713,41.987984 C42.3658833,41.9799733 42.2362321,41.9537163 42.0758138,41.9092123 L42.0758138,41.506008 C42.31754,41.5255898 42.6021135,41.5353805 42.9295426,41.5353805 C42.999863,41.5353805 43.0498556,41.5269249 43.079522,41.5100134 C43.1091884,41.4931018 43.1240214,41.4650647 43.1240214,41.4259012 L43.1240214,41.3831776 C43.1240214,41.3422339 43.1119353,41.3124166 43.0877627,41.293725 C43.06359,41.2750333 43.017443,41.2656876 42.9493201,41.2656876 L42.6526576,41.2656876 C42.533992,41.2656876 42.4312599,41.2496664 42.3444582,41.2176235 C42.2576565,41.1855806 42.1933802,41.1481978 42.1516275,41.105474 C42.1098748,41.0627501 42.0758139,41.0120163 42.0494438,40.953271 C42.0164811,40.8713837 42,40.7868273 42,40.6995995 Z M43.9876391,41.9786382 L43.9876391,40.024032 L45.065513,40.024032 C45.2984492,40.024032 45.4797411,40.0716506 45.6093943,40.1668892 C45.7390475,40.2621278 45.8038731,40.4236749 45.8038731,40.6515354 C45.8038731,40.8740554 45.7654172,41.0244767 45.6885043,41.1028037 C45.6467516,41.1419673 45.6099438,41.1700044 45.5780799,41.1869159 C45.546216,41.2038274 45.5028158,41.2211837 45.447878,41.2389853 L45.8632056,41.9786382 L45.1347342,41.9786382 L44.8248867,41.2870494 L44.6271117,41.2496662 L44.6271117,41.9786382 L43.9876391,41.9786382 Z M44.6304079,40.8598131 L44.9831067,40.8598131 C45.0600196,40.8598131 45.1089135,40.8446819 45.1297899,40.8144192 C45.1506662,40.7841565 45.1611042,40.7334227 45.1611042,40.6622163 C45.1611042,40.5910099 45.1484687,40.5402761 45.1231974,40.5100134 C45.097926,40.4797506 45.0512296,40.4646195 44.9831067,40.4646195 L44.6304079,40.4646195 L44.6304079,40.8598131 Z M45.9489081,41.4098798 L45.9489081,40.9986649 L46.9839308,40.9986649 L46.9839308,41.4098798 L45.9489081,41.4098798 Z M47.105892,40.4886515 L47.105892,40.024032 L48.6913885,40.024032 L48.8463123,40.2323097 L48.091471,41.9786382 L47.4124433,41.9786382 L48.0651009,40.4886515 L47.105892,40.4886515 Z M50,40.024032 L50,41.9786382 L49.3605274,41.9786382 L49.3605274,40.5153538 L48.9715698,40.5687583 L48.9715698,40.2403204 L49.3671199,40.024032 L50,40.024032 Z" id="SR-71-Copy-3" fill="#FFFFFF" transform="translate(46.000000, 41.000000) rotate(29.000000) translate(-46.000000, -41.000000) "></path>
                <g id="Group-3" transform="translate(27.000000, 19.000000)">
                    <path d="M6.82964125,10.6746212 C9.92243585,10.6746212 12.4296412,8.32411614 12.4296412,5.4246212 C12.4296412,2.52512627 1.22964125,2.52512627 1.22964125,5.4246212 C1.22964125,8.32411614 3.73684665,10.6746212 6.82964125,10.6746212 Z" id="Oval-3-Copy-4" fill="#FFFFFF" transform="translate(6.829641, 6.962311) rotate(-30.000000) translate(-6.829641, -6.962311) "></path>
                    <ellipse id="Oval-3-Copy-5" fill="#000000" cx="3" cy="6.55985531" rx="1.8" ry="1.6875"></ellipse>
                </g>
                <g id="Group-4-Copy-5" transform="translate(38.000000, 24.500000) rotate(-7.000000) translate(-38.000000, -24.500000) translate(25.000000, 18.000000)" fill="#FFFFFF">
                    <path d="M9.28520081,0.623919879 C9.3761387,0.932038604 9.70914516,1.18181818 10.037354,1.18181818 L25.3694379,1.18181818 C25.6939027,1.18181818 25.9569334,0.907714844 25.9569334,0.590909091 L25.9569334,0.590909091 C25.9569334,0.264559011 25.6924739,0.00103704132 25.3577174,0.00234974288 L9.71975924,0.0636718341 C9.38882136,0.0649695612 9.19692246,0.324812293 9.28520081,0.623919879 L9.28520081,0.623919879 Z" id="Line-Copy-2" fill-rule="nonzero"></path>
                    <path d="M8.66666667,12.7067991 C13.4531345,12.7067991 17.3333333,8.82660023 17.3333333,4.0401324 C17.3333333,-0.746335435 13.4531345,0.0495725011 8.66666667,0.0495725011 C3.88019884,0.0495725011 0,-0.746335435 0,4.0401324 C0,8.82660023 3.88019884,12.7067991 8.66666667,12.7067991 Z" id="Oval-6-Copy" fill-opacity="0.200000018"></path>
                    <path d="M8.66666667,11.5249809 C12.8004343,11.5249809 16.1515152,8.17390007 16.1515152,4.0401324 C16.1515152,2.52245112 15.7646852,1.86375387 14.9172957,1.52733778 C14.091172,1.19936432 13.125181,1.14715941 10.4363738,1.20631848 C9.60951954,1.22451092 9.17894873,1.23139068 8.66666667,1.23139068 C8.1543846,1.23139068 7.72381379,1.22451092 6.8969595,1.20631848 C4.20815229,1.14715941 3.24216134,1.19936432 2.41603768,1.52733778 C1.56864814,1.86375387 1.18181818,2.52245112 1.18181818,4.0401324 C1.18181818,8.17390007 4.53289899,11.5249809 8.66666667,11.5249809 Z M8.66666667,12.7067991 C3.88019884,12.7067991 0,8.82660023 0,4.0401324 C0,-0.746335435 3.88019884,0.0495725011 8.66666667,0.0495725011 C13.4531345,0.0495725011 17.3333333,-0.746335435 17.3333333,4.0401324 C17.3333333,8.82660023 13.4531345,12.7067991 8.66666667,12.7067991 Z" id="Oval-6-Copy" fill-rule="nonzero"></path>
                </g>
            </g>
        </g>
    </g>
</svg>