<?xml version="1.0" encoding="UTF-8" standalone="no"?>
<svg width="23px" height="38px" viewBox="0 0 23 38" version="1.1" xmlns="http://www.w3.org/2000/svg" xmlns:xlink="http://www.w3.org/1999/xlink">
    <!-- Generator: Sketch 48.1 (47250) - http://www.bohemiancoding.com/sketch -->
    <title>codefaster guides</title>
    <desc>Created with Sketch.</desc>
    <defs></defs>
    <g id="Dashboard---Product-menu" stroke="none" stroke-width="1" fill="none" fill-rule="evenodd" transform="translate(-156.000000, -325.000000)">
        <g id="Products-drop-down" transform="translate(109.000000, 58.000000)" stroke="#F9634E" stroke-width="2">
            <g id="codefaster-guides" transform="translate(43.000000, 267.000000)">
                <path d="M18.9267611,27.2222761 L18.4521201,27.0250309 L19.0426299,27.7230397 L18.9267611,27.2222761 Z M16.2466889,26.1085264 L15.7720479,25.9112813 L16.3625577,26.60929 L16.2466889,26.1085264 Z M27.6756654,33.0238542 L17.2099791,28.6746598 L15.6947356,22.1260542 L16.8934701,22.8751059 L15.7133286,23.1469555 L16.4631136,21.9470473 L18.1059269,29.0469862 L14.5299069,27.5609101 L13.2723674,22.1260542 L14.4711019,22.8751059 L13.2909604,23.1469555 L14.0407455,21.9470473 L15.4258547,27.9332365 L7.72820388,24.7343465 L7.58028676,24.3137791 C7.5421798,24.205431 7.47042913,24.001886 7.36965822,23.7167517 C7.20163242,23.2413175 7.01382884,22.7114964 6.8108728,22.1409007 C6.2310557,20.5107885 5.6460704,18.8807485 5.09298908,17.359863 C5.02629411,17.176533 5.02629411,17.176533 4.9595541,16.9933716 C3.86611629,13.9937769 3.05256284,11.8521491 2.65390193,10.956742 C1.4916496,8.34628056 3.76323044,5.05476613 7.43903997,3.05175106 C11.3198592,0.9370225 15.6019661,0.859650382 18.4711982,3.47858219 C20.8061844,5.60987354 22.7914188,10.3686876 24.5542699,17.0644573 C25.3741242,20.1784779 26.0884227,23.5094833 26.6941294,26.8397389 C26.9060289,28.0047898 27.0892835,29.0868501 27.2434075,30.0584855 C27.2974348,30.3990873 27.3439873,30.7017465 27.3830021,30.9630287 C27.4065458,31.1207007 27.4224227,31.2301063 27.4305691,31.2878086 L27.6756654,33.0238542 Z" id="Combined-Shape-Copy-13" transform="translate(14.895576, 16.961347) scale(-1, 1) rotate(-345.000000) translate(-14.895576, -16.961347) "></path>
            </g>
        </g>
    </g>
</svg>