<?xml version="1.0" encoding="UTF-8" standalone="no"?>
<svg width="158px" height="35px" viewBox="0 0 158 35" version="1.1" xmlns="http://www.w3.org/2000/svg" xmlns:xlink="http://www.w3.org/1999/xlink">
    <!-- Generator: Sketch 48.1 (47250) - http://www.bohemiancoding.com/sketch -->
    <title>Group 3</title>
    <desc>Created with Sketch.</desc>
    <defs></defs>
    <g id="Dashboard" stroke="none" stroke-width="1" fill="none" fill-rule="evenodd" transform="translate(-30.000000, -20.000000)">
        <g id="Group-5">
            <g id="Group-12">
                <g id="Group-3" transform="translate(30.000000, 20.000000)">
                    <path d="M15.1126719,16.7970663 C15.0077284,16.8586233 14.8783795,16.8578026 14.773436,16.7970663 L8.6012962,13.1931075 C8.37513898,13.0609651 8.37513898,12.7318402 8.60048269,12.5996977 L14.8198064,8.9588047 C14.9255634,8.89724767 15.0557258,8.89724767 15.1606693,8.95798394 L21.3710443,12.578358 C21.598015,12.7105004 21.5972015,13.0412668 21.3702308,13.1725885 L15.1126719,16.7970663 Z M24.3712883,13.1766923 C24.1443176,13.0445499 24.1451311,12.7137834 24.3721019,12.5824618 L29.491553,9.61705452 C29.7177102,9.48573286 30,9.6507057 30,9.91416978 L30,15.8638618 C30,16.1281466 29.7168967,16.2931194 29.4907395,16.160977 L24.3712883,13.1766923 Z M0.956693874,8.72981256 C0.730536649,8.59767014 0.730536649,8.26854523 0.956693874,8.13640281 L7.18252569,4.50617966 C7.28746915,4.44462263 7.41763159,4.44462263 7.52257505,4.5053589 L13.4970307,7.98866594 C13.7223744,8.1199876 13.7231879,8.44911251 13.4970307,8.58125493 L7.279334,12.222148 C7.17357703,12.283705 7.04422811,12.283705 6.93847113,12.222148 L0.956693874,8.72981256 Z M7.16056078,21.4039943 C7.05561732,21.4647306 6.92626841,21.4647306 6.82132495,21.4031735 L0.699623071,17.818913 C0.474279361,17.6867705 0.474279361,17.3584664 0.699623071,17.226324 L6.93928465,13.5731195 C7.04504162,13.5115625 7.17439054,13.5115625 7.28014752,13.5722988 L13.4433387,17.171333 C13.6703094,17.3034755 13.6694959,17.6334211 13.4425252,17.7647428 L7.16056078,21.4039943 Z M22.987499,21.3957867 C22.8825555,21.456523 22.7532066,21.4557022 22.6490767,21.3949659 L16.4403287,17.7704881 C16.2141714,17.6383457 16.2149849,17.3075793 16.4419557,17.1762576 L22.7003281,13.550959 C22.8052716,13.4902227 22.9346205,13.4902227 23.039564,13.550959 L29.2670228,17.1811822 C29.49318,17.3133246 29.49318,17.644091 29.2653958,17.7754127 L22.987499,21.3957867 Z M5.61732245,12.60216 C5.84347968,12.7334817 5.84347968,13.0626066 5.61813597,13.194749 L0.51007403,16.1855998 C0.283916805,16.3177422 0,16.1535902 0,15.8893053 L0,9.91663206 C0,9.65234722 0.283103289,9.48737439 0.51007403,9.61951681 L5.61732245,12.60216 Z M16.4826315,8.57797189 C16.2572877,8.44665023 16.2564742,8.11752532 16.4826315,7.9853829 L22.450579,4.49058521 C22.5563359,4.42902818 22.6856848,4.42902818 22.7914418,4.49058521 L29.0416791,8.13558204 C29.2678363,8.26772447 29.2678363,8.59767014 29.0408656,8.7289918 L23.041191,12.2040912 C22.9362475,12.2648275 22.8077121,12.2648275 22.7027687,12.2040912 L16.4826315,8.57797189 Z M24.3175963,22.3692085 C24.0906256,22.2370661 24.0922526,21.9062996 24.3192234,21.774978 L29.491553,18.7923348 C29.7185237,18.6618339 30,18.825986 30,19.08945 L30,25.0924914 C30,25.3567763 29.7168967,25.5217491 29.4907395,25.3896067 L24.3175963,22.3692085 Z M15.1598557,7.60783312 C15.0540988,7.66939015 14.9247498,7.66939015 14.8189929,7.60865388 L8.84860482,4.12780912 C8.62163408,3.9956667 8.62163408,3.66654179 8.84860482,3.53439937 L14.8303821,0.0461677712 C14.9353255,-0.0153892571 15.0646745,-0.0153892571 15.1704314,0.0461677712 L21.1278032,3.52044645 C21.3539605,3.65176811 21.3539605,3.98089302 21.1286168,4.11303544 L15.1598557,7.60783312 Z M14.6636115,27.3438371 C14.7685549,27.2831009 14.8979038,27.2839216 15.0020338,27.3454787 L20.9862516,30.8493047 C21.2124088,30.9814471 21.2124088,31.310572 20.9862516,31.4418937 L15.1704314,34.8332756 C15.0646745,34.8948326 14.9353255,34.8948326 14.8303821,34.8332756 L8.80142094,31.3179589 C8.5744502,31.1858165 8.57526371,30.85505 8.80304797,30.7237284 L14.6636115,27.3438371 Z M28.9326681,26.2152916 C29.1588253,26.3466133 29.1588253,26.676559 28.9326681,26.8078806 L22.6498902,30.4717549 C22.5441332,30.533312 22.4147843,30.533312 22.3090273,30.4717549 L16.3345717,26.9728535 C16.1076009,26.840711 16.109228,26.5107654 16.3361987,26.3794437 L22.6450091,22.7410129 C22.7499525,22.6802767 22.8793015,22.6802767 22.9842449,22.7418337 L28.9326681,26.2152916 Z M13.3359547,26.3695946 C13.5621119,26.501737 13.5612984,26.8325034 13.3343276,26.9630043 L7.47051007,30.3453578 C7.36556661,30.4052733 7.2362177,30.4052733 7.13208775,30.3445371 L0.953439813,26.7422198 C0.727282588,26.6100774 0.728096103,26.2793109 0.954253329,26.1479893 L6.81807088,22.7508621 C6.92382786,22.6901258 7.05317678,22.6909466 7.15812024,22.7516828 L13.3359547,26.3695946 Z M14.771809,18.1439341 C14.8767524,18.0831978 15.0061014,18.0831978 15.1102313,18.1447548 L21.3149117,21.7675911 C21.5418825,21.8997336 21.541069,22.2305 21.3132847,22.3610009 L15.0069149,25.9986109 C14.9019714,26.0593472 14.7726225,26.0585264 14.667679,25.9977901 L8.48577704,22.3782369 C8.25961982,22.2452737 8.26043333,21.9161488 8.48740407,21.7840064 L14.771809,18.1439341 Z M0,19.1559316 C0,18.8916468 0.283916805,18.7274947 0.51007403,18.8596371 L5.49285462,21.7774403 C5.71901185,21.9095827 5.71819834,22.2395284 5.49204111,22.37085 L0.508446999,25.2574643 C0.282289774,25.3887859 0,25.2238131 0,24.960349 L0,19.1559316 Z" id="Combined-Shape" fill="#F9634E"></path>
                    <g id="Datawire_Logo_KO-Copy" transform="translate(42.000000, 9.000000)" fill="#4A4A4A">
                        <path d="M19.591024,9.41448057 L23.3206589,9.41448057 C23.4391823,9.41448057 23.523016,9.29267863 23.4849536,9.17540651 L21.508117,3.0883293 L21.4498189,3.0883293 L19.4272111,9.17439988 C19.388185,9.291672 19.4715369,9.41448057 19.591024,9.41448057 L19.591024,9.41448057 Z M23.9807286,11.0849791 L18.9184274,11.0849791 C18.8447116,11.0849791 18.7787046,11.1338005 18.7546145,11.206781 L17.576125,14.7586666 C17.5520349,14.8316471 17.4860279,14.8804685 17.4123121,14.8804685 L15.8344082,14.8804685 C15.7144393,14.8804685 15.6310874,14.75615 15.6715588,14.6378713 L20.6336451,0.262725579 C20.6586988,0.191255018 20.7237422,0.143440206 20.7964944,0.143440206 L22.1893861,0.143440206 C22.2631019,0.143440206 22.3286271,0.191758332 22.353199,0.26423552 L27.2112159,14.6393812 C27.2512055,14.7571567 27.1673718,14.8804685 27.0478848,14.8804685 L25.4690172,14.8804685 C25.3948196,14.8804685 25.3288126,14.8311438 25.3047225,14.7581633 L24.1445415,11.2077877 C24.1209332,11.1343039 24.0549262,11.0849791 23.9807286,11.0849791 L23.9807286,11.0849791 Z" id="Fill-1"></path>
                        <path d="M41.2846734,1.71176604 L36.9802479,1.71176604 C36.8843692,1.71176604 36.8067989,1.79279956 36.8067989,1.89295901 L36.8067989,14.6992756 C36.8067989,14.799435 36.7292287,14.8804685 36.6338318,14.8804685 L35.0718273,14.8804685 C34.9759486,14.8804685 34.8983783,14.799435 34.8983783,14.6992756 L34.8983783,1.89295901 C34.8983783,1.79279956 34.8208081,1.71176604 34.7249294,1.71176604 L30.4783201,1.71176604 C30.3829232,1.71176604 30.305353,1.63073251 30.305353,1.53107638 L30.305353,0.324129864 C30.305353,0.224473729 30.3829232,0.143440206 30.4783201,0.143440206 L41.2846734,0.143440206 C41.3800704,0.143440206 41.4576406,0.224473729 41.4576406,0.324129864 L41.4576406,1.53107638 C41.4576406,1.63073251 41.3800704,1.71176604 41.2846734,1.71176604" id="Fill-2"></path>
                        <path d="M48.9482276,9.41448057 L52.6778625,9.41448057 C52.7968677,9.41448057 52.8802196,9.29267863 52.8421572,9.17540651 L50.8653206,3.0883293 L50.8070225,3.0883293 L48.7844147,9.17439988 C48.7453886,9.291672 48.8292223,9.41448057 48.9482276,9.41448057 L48.9482276,9.41448057 Z M53.3379322,11.0849791 L48.275631,11.0849791 C48.2019152,11.0849791 48.13639,11.1338005 48.111818,11.206781 L46.9333286,14.7586666 C46.9092384,14.8316471 46.8437133,14.8804685 46.7695157,14.8804685 L45.1920935,14.8804685 C45.0721247,14.8804685 44.988291,14.75615 45.0287624,14.6378713 L49.9908487,0.262725579 C50.0159024,0.191255018 50.0809458,0.143440206 50.1541798,0.143440206 L51.5470715,0.143440206 C51.6203055,0.143440206 51.6858307,0.191758332 51.7104026,0.26423552 L56.5684195,14.6393812 C56.6084091,14.7571567 56.5245754,14.8804685 56.4050883,14.8804685 L54.8262208,14.8804685 C54.7520232,14.8804685 54.6860162,14.8311438 54.6624079,14.7581633 L53.5022269,11.2077877 C53.4781368,11.1343039 53.4121298,11.0849791 53.3379322,11.0849791 L53.3379322,11.0849791 Z" id="Fill-3"></path>
                        <path d="M76.5680505,0.366911537 L73.2310849,14.7420572 C73.2122946,14.8230908 73.142915,14.8804685 73.0629357,14.8804685 L71.6262,14.8804685 C71.552966,14.8804685 71.4874408,14.8321504 71.4628689,14.7596732 L68.470874,5.92248936 L68.3740316,5.92248936 L65.3820367,14.7596732 C65.3574648,14.8321504 65.2919396,14.8804685 65.2187056,14.8804685 L63.7819698,14.8804685 C63.7019906,14.8804685 63.632611,14.8230908 63.6138207,14.7420572 L60.2961271,0.366911537 C60.2701098,0.252659303 60.3524981,0.143440206 60.4647581,0.143440206 L62.1679307,0.143440206 C62.2498372,0.143440206 62.3206622,0.203334549 62.3375253,0.286884642 L64.6342789,11.6008758 L64.702213,11.610942 L67.5000415,3.22019752 C67.5246134,3.14772033 67.5901386,3.09889889 67.6638544,3.09889889 L69.1810512,3.09889889 C69.254767,3.09889889 69.3202922,3.14721702 69.3448641,3.21969421 L72.1725643,11.6416442 L72.2303806,11.6416442 L74.5073803,0.287387955 C74.5242434,0.203334549 74.5950684,0.143440206 74.6769748,0.143440206 L76.3994196,0.143440206 C76.5116796,0.143440206 76.5945497,0.253162616 76.5680505,0.366911537" id="Fill-4"></path>
                        <path d="M84.0350292,14.8804685 L82.4629069,14.8804685 C82.3670281,14.8804685 82.2894579,14.799435 82.2894579,14.6992756 L82.2894579,0.324129864 C82.2894579,0.224473729 82.3670281,0.143440206 82.4629069,0.143440206 L84.0350292,0.143440206 C84.1304261,0.143440206 84.2079963,0.224473729 84.2079963,0.324129864 L84.2079963,14.6992756 C84.2079963,14.799435 84.1304261,14.8804685 84.0350292,14.8804685" id="Fill-5"></path>
                        <path d="M93.1001474,7.22909201 C93.1001474,7.32925146 93.1777176,7.41028498 93.2731146,7.41028498 L96.5883991,7.41028498 C98.3517971,7.47118595 99.4368168,6.3175907 99.4368168,4.57662824 C99.4368168,2.85579832 98.3426429,1.65086506 96.5883991,1.71176604 L93.2731146,1.71176604 C93.1777176,1.71176604 93.1001474,1.79279956 93.1001474,1.89295901 L93.1001474,7.22909201 L93.1001474,7.22909201 Z M98.4679116,8.70329816 C98.3676966,8.73853012 98.3175891,8.8542923 98.3652876,8.95243849 L100.987258,14.3036709 L100.987258,14.8804685 L99.043184,14.8804685 C98.9762134,14.8804685 98.9150245,14.8402034 98.8865981,14.7767859 L96.315217,9.07323381 C96.2867906,9.00981627 96.2256017,8.96955116 96.1586311,8.96955116 L93.2731146,8.96955116 C93.1777176,8.96955116 93.1001474,9.05058469 93.1001474,9.15024082 L93.1001474,14.6992756 C93.1001474,14.799435 93.0225772,14.8804685 92.9266984,14.8804685 L91.364694,14.8804685 C91.2692971,14.8804685 91.1917268,14.799435 91.1917268,14.6992756 L91.1917268,0.324129864 C91.1917268,0.224473729 91.2692971,0.143440206 91.364694,0.143440206 L96.5883991,0.143440206 C99.3207024,0.072472959 101.355355,1.7324019 101.355355,4.55599237 C101.355355,6.50482344 100.349351,8.04597032 98.4679116,8.70329816 L98.4679116,8.70329816 Z" id="Fill-6"></path>
                        <path d="M114.814514,8.04798358 L109.367253,8.04798358 C109.271374,8.04798358 109.193804,8.1290171 109.193804,8.22917655 L109.193804,13.141016 C109.193804,13.2406721 109.271374,13.3217057 109.367253,13.3217057 L115.502529,13.3217057 C115.598407,13.3217057 115.675978,13.4027392 115.675978,13.5028986 L115.675978,14.6992756 C115.675978,14.799435 115.598407,14.8804685 115.502529,14.8804685 L107.458832,14.8804685 C107.362953,14.8804685 107.285383,14.799435 107.285383,14.6992756 L107.285383,0.324129864 C107.285383,0.224473729 107.362953,0.143440206 107.458832,0.143440206 L115.39605,0.143440206 C115.491929,0.143440206 115.569499,0.224473729 115.569499,0.324129864 L115.569499,1.53107638 C115.569499,1.63073251 115.491929,1.71176604 115.39605,1.71176604 L109.367253,1.71176604 C109.271374,1.71176604 109.193804,1.79279956 109.193804,1.89295901 L109.193804,6.29846478 C109.193804,6.39862423 109.271374,6.47965775 109.367253,6.47965775 L114.814514,6.47965775 C114.910393,6.47965775 114.987963,6.56069127 114.987963,6.66034741 L114.987963,7.86729392 C114.987963,7.96695006 114.910393,8.04798358 114.814514,8.04798358" id="Fill-7"></path>
                        <path d="M2.0124516,8.74708646 L2.0124516,1.89295901 C2.0124516,1.79279956 2.09002184,1.71176604 2.18590058,1.71176604 L4.5419159,1.71176604 C5.8500103,1.71176604 6.87673191,2.07616523 7.62304433,2.79489735 C8.10436525,3.25291292 8.415128,3.94446609 8.59002239,4.81922549 L10.3211396,3.78541893 C10.0431394,2.83465914 9.6003627,2.09025802 8.97931899,1.57033485 C7.86490929,0.619071756 6.38240231,0.143440206 4.5419159,0.143440206 L0.277479993,0.143440206 C0.181601251,0.143440206 0.104031013,0.224473729 0.104031013,0.324129864 L0.104031013,9.88658892 L2.0124516,8.74708646" id="Fill-22"></path>
                        <path d="M8.732636,6.0840531 C8.73793583,6.22246439 8.75672613,6.34376302 8.75672613,6.48972403 L8.75672613,8.52361513 C8.75672613,10.4976119 8.378511,11.7931416 7.62304433,12.4107077 C6.87673191,13.0177041 5.8500103,13.3217057 4.5419159,13.3217057 L2.18590058,13.3217057 C2.09002184,13.3217057 2.0124516,13.2406721 2.0124516,13.141016 L2.0124516,10.0969741 L0.104031013,11.2364766 L0.104031013,14.6992756 C0.104031013,14.799435 0.181601251,14.8804685 0.277479993,14.8804685 L4.5419159,14.8804685 C6.38240231,14.8804685 7.86490929,14.4149033 8.97931899,13.4933357 C10.1033647,12.5627084 10.6651467,10.9022762 10.6651467,8.52361513 L10.6651467,6.50935326 C10.6651467,5.96275447 10.6314205,5.4574274 10.5707134,4.98632568 L8.732636,6.0840531" id="Fill-23"></path>
                    </g>
                </g>
            </g>
        </g>
    </g>
</svg>