<?xml version="1.0" encoding="UTF-8" standalone="no"?>
<svg width="34px" height="34px" viewBox="0 0 34 34" version="1.1" xmlns="http://www.w3.org/2000/svg" xmlns:xlink="http://www.w3.org/1999/xlink">
    <!-- Generator: Sketch 48.1 (47250) - http://www.bohemiancoding.com/sketch -->
    <title>Fill 3 Copy</title>
    <desc>Created with Sketch.</desc>
    <defs></defs>
    <g id="Dashboard---Help-menu" stroke="none" stroke-width="1" fill="none" fill-rule="evenodd" transform="translate(-1074.000000, -403.000000)">
        <g id="Help-drop-down-Copy" transform="translate(1037.000000, 58.000000)" fill="#F9634E">
            <path d="M53.9984346,345 C44.6121428,345 37,352.803715 37,362.430758 C37,370.13175 41.8705608,376.664271 48.625894,378.969112 C49.4764419,379.129616 49.7863961,378.591392 49.7863961,378.12914 C49.7863961,377.716109 49.7717855,376.61933 49.7634366,375.165162 C45.0348077,376.218069 44.0371098,372.828221 44.0371098,372.828221 C43.2637896,370.814428 42.1492065,370.278344 42.1492065,370.278344 C40.6056969,369.197615 42.2660917,369.219016 42.2660917,369.219016 C43.9724055,369.342069 44.8699162,371.015593 44.8699162,371.015593 C46.3862918,373.678893 48.849228,372.909543 49.8177047,372.463341 C49.97216,371.337671 50.4115228,370.569391 50.8968047,370.13389 C47.1220418,369.694108 43.1531661,368.198209 43.1531661,361.519094 C43.1531661,359.616584 43.815863,358.059693 44.9033119,356.842001 C44.7279843,356.401149 44.1446024,354.628113 45.0702907,352.22911 C45.0702907,352.22911 46.4969152,351.760437 49.7446515,354.016057 C51.10031,353.628707 52.5551122,353.436101 54.0005218,353.428611 C55.4448878,353.436101 56.8986464,353.628707 58.2563922,354.016057 C61.5020412,351.760437 62.9265785,352.22911 62.9265785,352.22911 C63.854354,354.628113 63.2709721,356.401149 63.0966881,356.842001 C64.1862243,358.059693 64.843703,359.616584 64.843703,361.519094 C64.843703,368.215329 60.8685656,369.688758 57.082323,370.119979 C57.6917953,370.658204 58.2355198,371.721811 58.2355198,373.348254 C58.2355198,375.677705 58.2146475,377.557745 58.2146475,378.12914 C58.2146475,378.595672 58.5214709,379.138176 59.3834986,378.968042 C66.1336137,376.657851 71,370.12961 71,362.430758 C71,352.803715 63.3878572,345 53.9984346,345" id="Fill-3-Copy"></path>
        </g>
    </g>
</svg>