<?xml version="1.0" encoding="UTF-8" standalone="no"?>
<svg width="25px" height="50px" viewBox="0 0 25 50" version="1.1" xmlns="http://www.w3.org/2000/svg" xmlns:xlink="http://www.w3.org/1999/xlink">
    <!-- Generator: Sketch 48.1 (47250) - http://www.bohemiancoding.com/sketch -->
    <title>Group 6</title>
    <desc>Created with Sketch.</desc>
    <defs></defs>
    <g id="Dashboard---Help-menu" stroke="none" stroke-width="1" fill="none" fill-rule="evenodd" transform="translate(-1077.000000, -318.000000)">
        <g id="Help-drop-down-Copy" transform="translate(1037.000000, 58.000000)" stroke="#F9634E" stroke-width="2">
            <g id="Group-6" transform="translate(30.000000, 260.000000)">
                <path d="M7.18448114,22.5837674 L11.4284905,24.3436162 C10.9499775,25.5517101 10.5682773,26.79594 10.2869984,28.0645439 L10.1260187,28.7962898 L16.2103184,34.8844155 L16.9420441,34.7270901 C18.2106132,34.4458034 19.4548089,34.0640927 20.6628696,33.5855665 L22.42267,37.8296926 C22.457704,37.9151383 22.5333668,37.9772305 22.6240044,37.9949163 C22.7146419,38.0126022 22.8080964,37.9835094 22.8726814,37.9175021 L25.5325045,35.2576059 C26.4102996,34.3798906 26.8755265,33.1715966 26.8130246,31.9318209 L26.7179002,30.2231943 C31.6424146,26.5864173 36.625467,20.209252 37.9828183,9.07939735 C38.0608539,8.51375372 37.8703038,7.94411325 37.467634,7.53927903 C37.0649642,7.13444481 36.4963637,6.94085404 35.9303275,7.01587399 C24.8044374,8.38423877 18.4237888,13.3710869 14.7871118,18.2811017 L13.0821907,18.1932922 C11.8451933,18.1259833 10.6373318,18.5844252 9.75649718,19.4555538 L7.09667405,22.11545 C7.02165741,22.1792262 6.98656087,22.2783075 7.00470619,22.3750853 C7.02285152,22.471863 7.0914568,22.5514998 7.18448114,22.5837674 Z" id="Path" transform="translate(22.500000, 22.500000) rotate(-45.000000) translate(-22.500000, -22.500000) "></path>
                <circle id="Oval-2" cx="22.5" cy="16.5" r="2.5"></circle>
                <path d="M21.1272376,41.3839724 C20.5678898,41.1792056 19.9672323,41.1290788 19.3837914,41.238476 C19.2783891,41.2622586 19.1686638,41.2279201 19.093217,41.1475408 C18.9989607,41.0496017 18.9734224,40.9006561 19.0292906,40.7747064 C19.648214,39.3864286 21.2899593,36.5947171 24.2625351,38.8499107 C24.2939411,38.8792365 24.31189,38.9211257 24.31189,38.9650953 C24.31189,39.009065 24.2939411,39.0509542 24.2625351,39.08028 C23.4554232,39.7433406 22.9990342,40.7675524 23.0334055,41.8386485 C23.0378924,41.9672375 23.1367856,42.0703996 23.2600535,42.0750801 C24.2823754,42.1179576 25.2635649,41.6523013 25.9042803,40.820174 C25.932425,40.784226 25.9745639,40.7633718 26.0190572,40.7633718 C26.0635504,40.7633718 26.1056893,40.784226 26.133834,40.820174 C26.5464496,41.3324424 27.6825954,43.0056506 26.4244084,44.6212665 C25.875129,45.3099524 25.088112,45.7454907 24.2334776,45.8337362 C23.0130653,45.9701391 20.7582081,46.3854099 19.8370874,47.482695 C19.7617461,47.5758142 19.6433873,47.6181154 19.5291342,47.5927569 C19.4148811,47.5673984 19.3232826,47.4784971 19.2908076,47.3614481 C18.9653643,46.2035395 18.4597649,43.6149167 21.1272376,41.3839724 Z" id="Path" transform="translate(23.000000, 42.800000) rotate(-45.000000) translate(-23.000000, -42.800000) "></path>
            </g>
        </g>
    </g>
</svg>